REM DIRINDEX 1\2\4,1\2\5,1\2\6,1\2\7,1\3\8,1\3\9
REM DIRNAME cjc037,folder01,folder02,folder03,folder04,folder05,folder06,folder07,folder08
TITLE ""
FILE "Disc1Track09.mp3" MP3
  TRACK 01 AUDIO
    TITLE "0:"
    INDEX 01 00:00:00
  TRACK 02 AUDIO
    TITLE "4:cjc037_0489"
    INDEX 01 00:00:07
  TRACK 03 AUDIO
    TITLE "0:"
    INDEX 01 00:01:42
  TRACK 04 AUDIO
    TITLE "4:cjc037_0490"
    INDEX 01 00:02:42
  TRACK 05 AUDIO
    TITLE "0:"
    INDEX 01 00:04:21
  TRACK 06 AUDIO
    TITLE "5:cjc037_0491"
    INDEX 01 00:04:70
  TRACK 07 AUDIO
    TITLE "0:"
    INDEX 01 00:08:36
  TRACK 08 AUDIO
    TITLE "6:cjc037_0492"
    INDEX 01 00:11:72
  TRACK 09 AUDIO
    TITLE "0:"
    INDEX 01 00:14:72
  TRACK 10 AUDIO
    TITLE "7:cjc037_0493"
    INDEX 01 00:18:39
  TRACK 11 AUDIO
    TITLE "0:"
    INDEX 01 00:20:53
  TRACK 12 AUDIO
    TITLE "4:cjc037_0494"
    INDEX 01 00:23:14
  TRACK 13 AUDIO
    TITLE "0:"
    INDEX 01 00:24:59
  TRACK 14 AUDIO
    TITLE "5:cjc037_0495"
    INDEX 01 00:25:35
  TRACK 15 AUDIO
    TITLE "0:"
    INDEX 01 00:29:68
  TRACK 16 AUDIO
    TITLE "6:cjc037_0496"
    INDEX 01 00:33:28
  TRACK 17 AUDIO
    TITLE "0:"
    INDEX 01 00:37:38
  TRACK 18 AUDIO
    TITLE "7:cjc037_0497"
    INDEX 01 00:40:72
  TRACK 19 AUDIO
    TITLE "0:"
    INDEX 01 00:43:66
  TRACK 20 AUDIO
    TITLE "4:cjc037_0498"
    INDEX 01 00:46:25
  TRACK 21 AUDIO
    TITLE "0:"
    INDEX 01 00:48:06
  TRACK 22 AUDIO
    TITLE "5:cjc037_0499"
    INDEX 01 00:48:53
  TRACK 23 AUDIO
    TITLE "0:"
    INDEX 01 00:51:34
  TRACK 24 AUDIO
    TITLE "6:cjc037_0500"
    INDEX 01 00:54:68
  TRACK 25 AUDIO
    TITLE "0:"
    INDEX 01 00:57:64
  TRACK 26 AUDIO
    TITLE "7:cjc037_0501"
    INDEX 01 01:01:23
  TRACK 27 AUDIO
    TITLE "0:"
    INDEX 01 01:03:51
  TRACK 28 AUDIO
    TITLE "4:cjc037_0502"
    INDEX 01 01:06:06
  TRACK 29 AUDIO
    TITLE "0:"
    INDEX 01 01:07:59
  TRACK 30 AUDIO
    TITLE "5:cjc037_0503"
    INDEX 01 01:08:35
  TRACK 31 AUDIO
    TITLE "0:"
    INDEX 01 01:12:24
  TRACK 32 AUDIO
    TITLE "6:cjc037_0504"
    INDEX 01 01:15:60
  TRACK 33 AUDIO
    TITLE "0:"
    INDEX 01 01:19:36
  TRACK 34 AUDIO
    TITLE "7:cjc037_0505"
    INDEX 01 01:22:68
  TRACK 35 AUDIO
    TITLE "0:"
    INDEX 01 01:25:43
  TRACK 36 AUDIO
    TITLE "4:cjc037_0506"
    INDEX 01 01:28:02
  TRACK 37 AUDIO
    TITLE "0:"
    INDEX 01 01:29:52
  TRACK 38 AUDIO
    TITLE "5:cjc037_0507"
    INDEX 01 01:30:28
  TRACK 39 AUDIO
    TITLE "0:"
    INDEX 01 01:35:61
  TRACK 40 AUDIO
    TITLE "6:cjc037_0508"
    INDEX 01 01:39:23
  TRACK 41 AUDIO
    TITLE "0:"
    INDEX 01 01:43:09
  TRACK 42 AUDIO
    TITLE "7:cjc037_0509"
    INDEX 01 01:46:43
  TRACK 43 AUDIO
    TITLE "0:"
    INDEX 01 01:49:20
  TRACK 44 AUDIO
    TITLE "4:cjc037_0510"
    INDEX 01 01:51:56
  TRACK 45 AUDIO
    TITLE "0:"
    INDEX 01 01:53:31
  TRACK 46 AUDIO
    TITLE "5:cjc037_0511"
    INDEX 01 01:54:07
  TRACK 47 AUDIO
    TITLE "0:"
    INDEX 01 01:57:72
  TRACK 48 AUDIO
    TITLE "6:cjc037_0512"
    INDEX 01 02:01:31
  TRACK 49 AUDIO
    TITLE "0:"
    INDEX 01 02:04:72
  TRACK 50 AUDIO
    TITLE "7:cjc037_0513"
    INDEX 01 02:08:31
  TRACK 51 AUDIO
    TITLE "0:"
    INDEX 01 02:11:04
  TRACK 52 AUDIO
    TITLE "4:cjc037_0514"
    INDEX 01 02:13:38
  TRACK 53 AUDIO
    TITLE "0:"
    INDEX 01 02:15:09
  TRACK 54 AUDIO
    TITLE "5:cjc037_0515"
    INDEX 01 02:15:62
  TRACK 55 AUDIO
    TITLE "0:"
    INDEX 01 02:21:16
  TRACK 56 AUDIO
    TITLE "6:cjc037_0516"
    INDEX 01 02:24:51
  TRACK 57 AUDIO
    TITLE "0:"
    INDEX 01 02:29:15
  TRACK 58 AUDIO
    TITLE "7:cjc037_0517"
    INDEX 01 02:32:47
  TRACK 59 AUDIO
    TITLE "0:"
    INDEX 01 02:36:00
  TRACK 60 AUDIO
    TITLE "4:cjc037_0518"
    INDEX 01 02:38:32
  TRACK 61 AUDIO
    TITLE "0:"
    INDEX 01 02:40:07
  TRACK 62 AUDIO
    TITLE "5:cjc037_0519"
    INDEX 01 02:40:56
  TRACK 63 AUDIO
    TITLE "0:"
    INDEX 01 02:46:49
  TRACK 64 AUDIO
    TITLE "6:cjc037_0520"
    INDEX 01 02:50:06
  TRACK 65 AUDIO
    TITLE "0:"
    INDEX 01 02:55:62
  TRACK 66 AUDIO
    TITLE "7:cjc037_0521"
    INDEX 01 02:59:18
  TRACK 67 AUDIO
    TITLE "0:"
    INDEX 01 03:03:34
  TRACK 68 AUDIO
    TITLE "4:cjc037_0522"
    INDEX 01 03:05:68
  TRACK 69 AUDIO
    TITLE "0:"
    INDEX 01 03:07:45
  TRACK 70 AUDIO
    TITLE "5:cjc037_0523"
    INDEX 01 03:08:23
  TRACK 71 AUDIO
    TITLE "0:"
    INDEX 01 03:15:53
  TRACK 72 AUDIO
    TITLE "6:cjc037_0524"
    INDEX 01 03:19:15
  TRACK 73 AUDIO
    TITLE "0:"
    INDEX 01 03:23:60
  TRACK 74 AUDIO
    TITLE "7:cjc037_0525"
    INDEX 01 03:27:19
  TRACK 75 AUDIO
    TITLE "0:"
    INDEX 01 03:30:48
  TRACK 76 AUDIO
    TITLE "4:cjc037_0526"
    INDEX 01 03:33:08
  TRACK 77 AUDIO
    TITLE "0:"
    INDEX 01 03:34:54
  TRACK 78 AUDIO
    TITLE "5:cjc037_0527"
    INDEX 01 03:35:28
  TRACK 79 AUDIO
    TITLE "0:"
    INDEX 01 03:38:36
  TRACK 80 AUDIO
    TITLE "6:cjc037_0528"
    INDEX 01 03:41:70
  TRACK 81 AUDIO
    TITLE "0:"
    INDEX 01 03:44:70
  TRACK 82 AUDIO
    TITLE "7:cjc037_0529"
    INDEX 01 03:48:25
  TRACK 83 AUDIO
    TITLE "0:"
    INDEX 01 03:50:37
  TRACK 84 AUDIO
    TITLE "4:cjc037_0530"
    INDEX 01 03:52:73
  TRACK 85 AUDIO
    TITLE "0:"
    INDEX 01 03:54:53
  TRACK 86 AUDIO
    TITLE "5:cjc037_0531"
    INDEX 01 03:55:29
  TRACK 87 AUDIO
    TITLE "0:"
    INDEX 01 03:59:46
  TRACK 88 AUDIO
    TITLE "6:cjc037_0532"
    INDEX 01 04:03:05
  TRACK 89 AUDIO
    TITLE "0:"
    INDEX 01 04:06:30
  TRACK 90 AUDIO
    TITLE "7:cjc037_0533"
    INDEX 01 04:09:62
  TRACK 91 AUDIO
    TITLE "0:"
    INDEX 01 04:12:23
  TRACK 92 AUDIO
    TITLE "4:cjc037_0534"
    INDEX 01 04:14:55
  TRACK 93 AUDIO
    TITLE "0:"
    INDEX 01 04:16:33
  TRACK 94 AUDIO
    TITLE "5:cjc037_0535"
    INDEX 01 04:17:11
  TRACK 95 AUDIO
    TITLE "0:"
    INDEX 01 04:21:48
  TRACK 96 AUDIO
    TITLE "6:cjc037_0536"
    INDEX 01 04:25:08
  TRACK 97 AUDIO
    TITLE "0:"
    INDEX 01 04:28:20
  TRACK 98 AUDIO
    TITLE "7:cjc037_0537"
    INDEX 01 04:31:52
  TRACK 99 AUDIO
    TITLE "0:"
    INDEX 01 04:33:70
  TRACK 100 AUDIO
    TITLE "4:cjc037_0538"
    INDEX 01 04:36:28
  TRACK 101 AUDIO
    TITLE "0:"
    INDEX 01 04:38:11
  TRACK 102 AUDIO
    TITLE "5:cjc037_0539"
    INDEX 01 04:38:60
  TRACK 103 AUDIO
    TITLE "0:"
    INDEX 01 04:42:52
  TRACK 104 AUDIO
    TITLE "6:cjc037_0540"
    INDEX 01 04:46:10
  TRACK 105 AUDIO
    TITLE "0:"
    INDEX 01 04:49:26
  TRACK 106 AUDIO
    TITLE "7:cjc037_0541"
    INDEX 01 04:52:62
  TRACK 107 AUDIO
    TITLE "0:"
    INDEX 01 04:54:73
